<svg xmlns="http://www.w3.org/2000/svg" viewBox="0 0 400 400"><defs><linearGradient id="b" x1="0%" x2="100%" y1="0%" y2="100%"><stop offset="0%" stop-color="gold"/><stop offset="50%" stop-color="orange"/><stop offset="100%" stop-color="#DAA520"/></linearGradient><linearGradient id="c" x1="0%" x2="100%" y1="0%" y2="100%"><stop offset="0%" stop-color="#B8860B"/><stop offset="100%" stop-color="#8B6914"/></linearGradient><radialGradient id="a" cx="50%" cy="50%" r="60%"><stop offset="0%" stop-color="#263238"/><stop offset="100%" stop-color="#1A1A1A"/></radialGradient></defs><path fill="url(#a)" d="M0 0h400v400H0z"/><path fill="url(#b)" d="M80 180q0-60 120-60t120 60q0 70-40 110-80 30-160 0-40-40-40-110Z"/><ellipse cx="200" cy="160" fill="url(#c)" opacity=".3" rx="80" ry="25"/><rect width="100" height="60" x="150" y="250" fill="url(#b)" rx="15"/><rect width="80" height="35" x="160" y="270" fill="url(#c)" rx="10"/><ellipse cx="180" cy="285" rx="8" ry="12"/><ellipse cx="220" cy="285" rx="8" ry="12"/><circle cx="160" cy="190" r="8"/><circle cx="240" cy="190" r="8"/><circle cx="162" cy="188" r="3" fill="#FF4500"/><circle cx="242" cy="188" r="3" fill="#FF4500"/><path fill="orange" d="M140 140q-10-60-20-80 5-5 15 5 10 20 15 80ZM260 140q10-60 20-80-5-5-15 5-10 20-15 80Z"/><ellipse cx="110" cy="160" fill="url(#b)" rx="15" ry="30" transform="rotate(-20 110 160)"/><ellipse cx="290" cy="160" fill="url(#b)" rx="15" ry="30" transform="rotate(20 290 160)"/><path fill="url(#c)" d="M170 310h60v40h-60z"/><path fill="url(#c)" d="M120 200q30-20 60 0-30 20-60 0M280 200q-30-20-60 0 30 20 60 0" opacity=".2"/><circle cx="200" cy="295" r="8" fill="none" stroke="#DAA520" stroke-width="3"/></svg>